# xmcd
#
# Track frame offsets:
#	150
#	21365
#	47420
#	64690
#	99950
#	129175
#	154467
#	176667
#	200042
#	243117
#	271972
#
# Disc length: 3854 seconds
#
# Revision: 2
# Processed by: cddbd v1.4b41PL3 Copyright (c) Steve Scherf et al.
# Submitted via: EZCDDA 4.3.2
#
DISCID=8f0f0c0b
DTITLE=Tranport - Shaker
DYEAR=1900
DGENRE=
TTITLE0=FDM
TTITLE1=Unisono
TTITLE2=Swing
TTITLE3=Bella Isa
TTITLE4=Luci sul Lago
TTITLE5=Ironic' Oh
TTITLE6=Journey for You
TTITLE7=Metti un Buco nella Cintura
TTITLE8=Pata Pat
TTITLE9=Luglio
TTITLE10=Mi Dispiace
EXTD=
EXTT0=
EXTT1=
EXTT2=
EXTT3=
EXTT4=
EXTT5=
EXTT6=
EXTT7=
EXTT8=
EXTT9=
EXTT10=
PLAYORDER=
